<svg id="Capa_1" enable-background="new 0 0 512 512" height="512" viewBox="0 0 512 512" width="512" xmlns="http://www.w3.org/2000/svg"><g><path d="m355.651 293.408c-2.316-.819-4.677-1.67-7.039-2.548v-42.301c4.34 1.496 6.586 3.673 6.883 3.976 4.545 5.136 12.391 5.65 17.571 1.138 5.205-4.535 5.748-12.431 1.212-17.636-4.271-4.901-13.125-11.051-25.666-13.147v-6.89c0-6.903-5.596-12.5-12.5-12.5s-12.5 5.597-12.5 12.5v8.276c-.876.228-1.759.474-2.652.743-15.112 4.552-26.398 17.456-29.455 33.676-2.803 14.873 2.02 29.26 12.583 37.545 5.057 3.967 11.231 7.603 19.523 11.389v54.914c-6.048-.804-10.574-2.783-17.66-7.419-5.777-3.781-13.524-2.159-17.304 3.617s-2.16 13.523 3.617 17.304c12.257 8.018 20.875 10.781 31.347 11.646v8.309c0 6.903 5.596 12.5 12.5 12.5s12.5-5.597 12.5-12.5v-9.477c8.214-2.01 15.684-5.989 22.009-11.801 8.459-7.771 14.168-18.302 16.076-29.649 3.925-23.332-8.262-43.611-31.045-51.665zm-32.039-14.003c-1.481-.927-2.864-1.87-4.094-2.836-3.144-2.466-4.497-7.665-3.445-13.244.794-4.211 3.172-9.099 7.539-12.153zm38.432 61.523c-1.217 7.239-5.768 14.875-13.432 19.01v-42.469c14.657 5.876 14.302 18.288 13.432 23.459z"/><path d="m511.42 355.931c-4.494-40.117-17.633-79.558-37.998-114.058-15.955-27.029-35.752-50.54-59.056-70.185 10.711-8.233 17.634-21.164 17.634-35.688 0-15.022-7.406-28.338-18.75-36.516 18.301-19.759 28.75-45.849 28.75-73.484 0-5.532-3.045-10.615-7.922-13.226-4.877-2.609-10.795-2.324-15.398.745-22.281 14.854-51.077 14.854-73.358 0-5.039-3.359-11.603-3.359-16.642 0-22.281 14.854-51.077 14.854-73.358 0-4.603-3.069-10.521-3.344-15.398-.733s-7.924 7.704-7.924 13.236c0 27.618 10.449 53.704 28.75 73.461-11.344 8.179-18.75 21.495-18.75 36.517 0 14.547 6.944 27.496 17.685 35.728-36.857 31.212-65.339 72.495-82.05 119.272h-122.635c-8.284 0-15 6.716-15 15v45h-25c-8.284 0-15 6.716-15 15v60c0 8.284 6.716 15 15 15h25v45c0 8.284 6.716 15 15 15h180c8.284 0 15-6.716 15-15v-25.273c2.373.177 4.756.273 7.144.273h159.736c27.091 0 52.992-11.59 71.062-31.797 17.895-20.012 26.452-46.718 23.478-73.272zm-174.42-312.482c22.03 11.704 47.399 14.257 70.887 7.661-5.435 16.085-16.052 30.161-30.585 39.89h-80.604c-14.532-9.728-25.146-23.799-30.582-39.889 23.488 6.595 48.855 4.042 70.884-7.662zm65 92.551c0 8.271-6.729 15-15 15h-100c-8.271 0-15-6.729-15-15s6.729-15 15-15h100c8.271 0 15 6.729 15 15zm-332 185h150v30h-150zm-40 90v-30h150v30zm190 60h-150v-30h150zm245.579-61.795c-12.386 13.851-30.136 21.795-48.699 21.795h-159.736c-2.394 0-4.778-.134-7.144-.392v-4.608c0-8.284-6.716-15-15-15h-25v-30h25c8.284 0 15-6.716 15-15v-60c0-8.284-6.716-15-15-15h-25.27c18.144-44.748 48.481-83.19 87.062-110h80.404c58.239 40.413 96.216 105.118 104.41 178.271 2.055 18.345-3.636 36.079-16.027 49.934z"/></g></svg>