<svg id="Layer_1" enable-background="new 0 0 512.026 512.026" height="512" viewBox="0 0 512.026 512.026" width="512" xmlns="http://www.w3.org/2000/svg"><g><g clip-rule="evenodd" fill-rule="evenodd"><path d="m227.728 398.84-185.255-185.256-25.46 25.46c-9.333 9.333-9.333 24.604 0 33.937l168.287 168.287z" fill="#60a4ff"/><path d="m129.242 161.074h40.001v261.991h-40.001z" fill="#a0c8ff" transform="matrix(.707 -.707 .707 .707 -162.812 191.076)"/><path d="m190.655 414.196h60.003v40.001h-60.003z" fill="#a0c8ff" transform="matrix(.707 -.707 .707 .707 -242.394 283.199)"/><path d="m236.013 378.839h40.001v40.001h-40.001z" fill="#80b6ff" transform="matrix(.707 -.707 .707 .707 -207.038 297.847)"/><path d="m271.369 404.195h40.001v60.003h-40.001z" fill="#a0c8ff" transform="matrix(.707 -.707 .707 .707 -221.683 333.203)"/><path d="m231.788 272.069h261.991v40.001h-261.991z" fill="#a0c8ff" transform="matrix(.707 -.707 .707 .707 -100.268 342.071)"/><path d="m469.553 213.584-185.255 185.256 42.429 42.428 168.287-168.287c9.333-9.333 9.333-24.604 0-33.937z" fill="#60a4ff"/><path d="m298.441 469.553-42.428-42.429-42.428 42.429 25.46 25.46c9.333 9.333 24.604 9.333 33.937 0z" fill="#60a4ff"/><path d="m256.013 370.555 185.255-185.255-168.286-168.288c-9.333-9.333-24.604-9.333-33.937 0l-168.287 168.287z" fill="#fff"/></g><g><path d="m502.085 231.973-222.032-222.032c-13.255-13.254-34.823-13.255-48.08 0l-222.031 222.032c-13.255 13.256-13.255 34.824 0 48.08l222.032 222.032c6.628 6.627 15.334 9.941 24.04 9.941s17.412-3.314 24.04-9.941l222.032-222.032c13.254-13.256 13.254-34.824-.001-48.08zm-203.644 223.438-28.286-28.286 14.143-14.143 28.286 28.286zm-42.428-42.429-14.143-14.142 14.143-14.143 14.143 14.143zm-56.571 28.286 28.286-28.286 14.143 14.143-28.286 28.286zm70.714-70.713 171.113-171.113 14.143 14.143-171.114 171.112zm-24.04-346.471c2.729-2.729 6.313-4.093 9.897-4.093s7.168 1.364 9.897 4.093l161.216 161.216-171.113 171.112-18.382-18.382c-3.905-3.905-10.237-3.905-14.143 0s-3.905 10.237 0 14.143l18.382 18.382-14.143 14.143-171.112-171.113 14.143-14.143 89.092 89.092c1.953 1.953 4.512 2.929 7.071 2.929s5.119-.976 7.071-2.929c3.905-3.905 3.905-10.237 0-14.143l-89.092-89.092zm-222.032 222.032 18.388-18.388 171.113 171.112-28.285 28.286-161.216-161.216c-5.457-5.457-5.457-14.337 0-19.794zm241.826 241.826c-2.625 2.625-6.14 4.071-9.897 4.071s-7.272-1.445-9.897-4.071l-18.388-18.388 28.286-28.286 28.286 28.286zm222.032-222.032-161.216 161.216-28.286-28.286 171.113-171.113 18.388 18.388c2.625 2.625 4.071 6.14 4.071 9.897s-1.444 7.273-4.07 9.898z"/><path d="m216.318 141.933c.867.232 1.738.343 2.595.343 4.415 0 8.456-2.947 9.653-7.414l15.075-56.262c1.43-5.335-1.736-10.818-7.071-12.248s-10.819 1.736-12.248 7.071l-15.076 56.262c-1.429 5.336 1.737 10.819 7.072 12.248z"/><path d="m283.461 134.863c1.197 4.468 5.237 7.414 9.653 7.414.856 0 1.728-.111 2.595-.343 5.334-1.429 8.5-6.913 7.071-12.248l-15.076-56.262c-1.43-5.334-6.913-8.503-12.248-7.071-5.334 1.429-8.5 6.913-7.071 12.248z"/><path d="m198.742 323.284c5.523 0 10-4.477 10-10s-4.477-10-10-10h-.007c-5.523 0-9.996 4.477-9.996 10s4.48 10 10.003 10z"/></g></g></svg>