<?xml version="1.0" encoding="iso-8859-1"?>
<!-- Generator: Adobe Illustrator 19.0.0, SVG Export Plug-In . SVG Version: 6.00 Build 0)  -->
<svg version="1.1" id="Capa_1" xmlns="http://www.w3.org/2000/svg" xmlns:xlink="http://www.w3.org/1999/xlink" x="0px" y="0px"
	 viewBox="0 0 512 512" style="enable-background:new 0 0 512 512;" xml:space="preserve">
<g>
	<g>
		<g>
			<path d="M202.667,106.667H192V85.333c5.896,0,10.667-4.771,10.667-10.667C202.667,68.771,197.896,64,192,64H21.333
				c-5.896,0-10.667,4.771-10.667,10.667c0,5.896,4.771,10.667,10.667,10.667v21.333H10.667C4.771,106.667,0,111.438,0,117.333v352
				C0,492.865,19.135,512,42.667,512h128c23.531,0,42.667-19.135,42.667-42.667v-352
				C213.333,111.438,208.563,106.667,202.667,106.667z M64,330.667c0,5.896-4.771,10.667-10.667,10.667
				c-5.896,0-10.667-4.771-10.667-10.667V160c0-5.896,4.771-10.667,10.667-10.667C59.229,149.333,64,154.104,64,160V330.667z"/>
			<path d="M192,10.667C192,4.771,187.229,0,181.333,0H32c-5.896,0-10.667,4.771-10.667,10.667v32H192V10.667z"/>
			<path d="M501.333,341.333H448v-10.667c0-5.896-4.771-10.667-10.667-10.667h-192c-5.896,0-10.667,4.771-10.667,10.667v106.667
				c0,41.167,33.5,74.667,74.667,74.667h64c30.272,0,56.275-18.19,67.982-44.148C481.38,460.859,512,426.036,512,384v-32
				C512,346.104,507.229,341.333,501.333,341.333z M448,420.393V384h21.333C469.333,399.332,460.712,412.866,448,420.393z"/>
		</g>
	</g>
</g>
<g>
</g>
<g>
</g>
<g>
</g>
<g>
</g>
<g>
</g>
<g>
</g>
<g>
</g>
<g>
</g>
<g>
</g>
<g>
</g>
<g>
</g>
<g>
</g>
<g>
</g>
<g>
</g>
<g>
</g>
</svg>
