<?xml version="1.0" encoding="iso-8859-1"?>
<!-- Generator: Adobe Illustrator 19.0.0, SVG Export Plug-In . SVG Version: 6.00 Build 0)  -->
<svg version="1.1" id="Capa_1" xmlns="http://www.w3.org/2000/svg" xmlns:xlink="http://www.w3.org/1999/xlink" x="0px" y="0px"
	 viewBox="0 0 512 512" style="enable-background:new 0 0 512 512;" xml:space="preserve">
<g>
	<g>
		<g>
			<path d="M202.667,106.667H192V85.333c5.896,0,10.667-4.771,10.667-10.667C202.667,68.771,197.896,64,192,64V10.667
				C192,4.771,187.229,0,181.333,0H32c-5.896,0-10.667,4.771-10.667,10.667V64c-5.896,0-10.667,4.771-10.667,10.667
				c0,5.896,4.771,10.667,10.667,10.667v21.333H10.667C4.771,106.667,0,111.438,0,117.333v352C0,492.865,19.135,512,42.667,512h128
				c23.531,0,42.667-19.135,42.667-42.667v-352C213.333,111.438,208.563,106.667,202.667,106.667z M42.667,21.333h128V64h-128
				V21.333z M42.667,85.333h128v21.333h-128V85.333z M192,469.333c0,11.76-9.573,21.333-21.333,21.333h-128
				c-11.76,0-21.333-9.573-21.333-21.333V128H192V469.333z"/>
			<path d="M53.333,341.333c5.896,0,10.667-4.771,10.667-10.667V160c0-5.896-4.771-10.667-10.667-10.667
				c-5.896,0-10.667,4.771-10.667,10.667v170.667C42.667,336.563,47.438,341.333,53.333,341.333z"/>
			<path d="M288,448c5.896,0,10.667-4.771,10.667-10.667v-64c0-5.896-4.771-10.667-10.667-10.667s-10.667,4.771-10.667,10.667v64
				C277.333,443.229,282.104,448,288,448z"/>
			<path d="M501.333,341.333H448v-10.667c0-5.896-4.771-10.667-10.667-10.667h-192c-5.896,0-10.667,4.771-10.667,10.667v106.667
				c0,41.167,33.5,74.667,74.667,74.667h64c30.259,0,56.249-18.176,67.965-44.116C481.738,460.845,512,425.335,512,384v-32
				C512,346.104,507.229,341.333,501.333,341.333z M426.667,437.333c0,29.406-23.927,53.333-53.333,53.333h-64
				c-29.406,0-53.333-23.927-53.333-53.333v-96h170.667V437.333z M490.667,384c0,27.642-18.003,51.919-43.401,60.591
				c0.238-2.424,0.734-4.772,0.734-7.258v-74.667h42.667V384z"/>
		</g>
	</g>
</g>
<g>
</g>
<g>
</g>
<g>
</g>
<g>
</g>
<g>
</g>
<g>
</g>
<g>
</g>
<g>
</g>
<g>
</g>
<g>
</g>
<g>
</g>
<g>
</g>
<g>
</g>
<g>
</g>
<g>
</g>
</svg>
